<svg id="Layer_1" data-name="Layer 1" xmlns="http://www.w3.org/2000/svg" viewBox="0 0 612 602.04"><defs><style>.cls-1{fill:#9a6b2a;}.cls-2{fill:#e3bc46;}.cls-3{fill:#a2752b;}.cls-4{fill:#b6872d;}.cls-5{fill:#b28631;}.cls-6{fill:#f0cb51;}.cls-7{fill:#bf9230;}.cls-8{fill:#d4aa3b;}.cls-9{fill:#f0ca50;}.cls-10{fill:#c99d36;}.cls-11{fill:#be9336;}.cls-12{fill:#d0a73f;}.cls-13{fill:#996a29;}.cls-14{fill:#d8b044;}.cls-15{fill:#e6c14a;}.cls-16{fill:#c19638;}.cls-17{fill:#986929;}.cls-18{fill:#9a6c2a;}.cls-19{fill:#e3be49;}.cls-20{fill:#cca339;}.cls-21{fill:#ae8230;}.cls-22{fill:#a97c2e;}.cls-23{fill:#e1be4a;}.cls-24{fill:#e9c44c;}.cls-25{fill:#8f6327;}.cls-26{fill:#a87c2e;}.cls-27{fill:#cea63b;}.cls-28{fill:#c8a038;}.cls-29{fill:#c9a03d;}.cls-30{fill:#8e6827;}.cls-31{fill:#e2bb46;}.cls-32{fill:#e4bf49;}.cls-33{fill:#b38932;}.cls-34{fill:#c19738;}.cls-35{fill:#e4c04a;}.cls-36{fill:#e8c34c;}.cls-37{fill:#aa8230;}.cls-38{fill:#c9a33f;}.cls-39{fill:#c09839;}.cls-40{fill:#6d4e1e;}.cls-41{fill:#9f782d;}.cls-42{fill:#b38b33;}.cls-43{fill:#af8631;}.cls-44{fill:#cba23e;}.cls-45{fill:#b89637;}.cls-46{fill:#281d0a;}.cls-47{fill:#8e6727;}.cls-48{fill:#7f5b24;}.cls-49{fill:#8a6c29;}.cls-50{fill:#997d2e;}.cls-51{fill:#9e702a;}.cls-52{fill:#e5bf48;}.cls-53{fill:#bf9532;}.cls-54{fill:#e5be48;}.cls-55{fill:#a97d2e;}.cls-56{fill:#bf9939;}.cls-57{fill:#876928;}</style></defs><path class="cls-1" d="M189.23,375.87c-8,9.3-16.82,17.8-24.45,27.4-8.52,10.71-16.88,21.5-22.21,34.25-2.72,6.51-2.13,8.14,3.8,12.16,8.48,5.75,18.21,6.7,28,7.51,12.76,1.05,25.52.33,38.28.18,1.7,2.56,6,3.74,4.21,8.12-4.24,2.15-9,1.67-13.41,1.84-15.14.57-30.32,1.83-45.66-.5,3.52,3,6.69,3.93,13.31,4.05,10.69.2,21.37,0,32-.84,1.56,2.11,4,2.65,6.24,3.59,2.45,1,5,2.34,3,5.81-1.52,1.32-3.17,1-4.94.56-6.6-1.81-13.38-2.08-18.68-2.23a35.41,35.41,0,0,1,12.42,1.8c-3.22,2-6.86,1.4-9.41,2.47,3.17.1,7.08-2.7,11-.25.78,1.54.28,2.85-.7,4.08-14.4,3.86-29.15,3.13-43.83,3.39-8.2.14-16.11-.52-23.38-4.7-7.69-4.41-13.42-10.14-13.46-19.81,0-1.72-.6-3.44-1.15-6.41-6,8.33-11.38,16-16.91,23.46C79.67,514.05,59,548.33,36.72,581.55c-2.82,4.22-5.5,8.6-9.64,11.74-1.43,1.08-3.54,2.08-4.82,1-1.77-1.47.17-3.17,1-4.56,2.56-4.06,6.32-7.75,1.93-13-1.43-1.7.54-3.56,1.34-5.27s2.94-2.77,1.65-5.21a8.15,8.15,0,0,0-1.37.46c-1.78,1-1.87,5.68-5,3.07-2.64-2.19-5.78-4.43-3.05-9.6C39.3,521.26,64.58,485.44,90,449.68c27.1-38.21,55.2-75.67,83.23-113.19,4.51-6,8.73-12.29,14-17.68,2.36,1.11,2.41,3.36,2.42,5.43C189.66,341.45,190.38,358.67,189.23,375.87Z"/><path class="cls-2" d="M271.86,25.78c15.61-4.12,31.33-7.59,47.61-7.48a78.21,78.21,0,0,1,30.86,6.91c-7-5.69-15.41-8.24-24.06-9-12.29-1-24.62-.48-36.66,2.91a16.75,16.75,0,0,1-4.2.1c-3.25.07-3.46-.34-2-4,21.14-5.34,42.47-7.08,63.59-.74,12.54,3.76,18.5,14.2,21.79,26.24.83,3,1.49,6.09,2.23,9.13-1.63,2.59-.91,5.24-.31,7.59-.71-2.37-1.13-5,.19-7.69,3.18,9.84,2.53,19.77.74,29.72-4.42,24.59-14.94,46.68-27.79,67.81-4.26,7-7.92,14.35-13,20.84-3.06-1.77-2.24-4.84-2.43-7.5-.84-12-.2-24,0-35.93,8-14.5,16.41-28.78,22.8-44.12,1.8-4.34,3.62-8.68,5.15-13.12s-.75-8.6-2.13-12.58C348.6,38.6,335.19,33,319.71,31c-14.16-1.83-28.2,0-42.14,2.7-1.2.23-2.43.27-3.64.41-1.85.15-1.83-.71-1.08-2,17.94-4.73,36.14-7.66,54.73-6.46a56.4,56.4,0,0,1,20.91,5.52c1.33.64,2.4,2,4.67,1.41C346.09,27.49,339,24.12,330.5,23c-5.39-.71-10.61-3.12-16.21-2.5-7.63.84-15.23,2.06-22.86,2.93-5.93.68-11.5,3.27-17.55,3.24C272.76,27.38,271.88,27.53,271.86,25.78Z"/><path class="cls-3" d="M189.23,375.87c-2.41-1.73-1.92-4.32-1.92-6.72q-.08-25.17-.09-50.34C196.79,306,206.31,293.1,216,280.33c3.66-4.85,7-9.95,11.39-14.23a3,3,0,0,1,2.13,2.74c.19,4.24.73,8.35,3.12,12a1.22,1.22,0,0,1,.16,1c-2.59,5.78-.13,12.06-1.76,17.92-1.25,4.48-2.16,8.89,1.15,13a3.64,3.64,0,0,1,.4,4c-4,6.58-2.08,14.05-3.32,21q-12.6,11.89-25.18,23.81C199.08,366.38,194.17,371.14,189.23,375.87Z"/><path class="cls-4" d="M518.68,99.45c19.14-10.54,37.46-22.79,58.81-28.79,8.58-2.41,11.77,0,12.68,9.09-3.45-1.53-6.38-2.76-4.34,3.32.51,1.51-1.38,3.74.16,5.74.59.77.11,2.83,2.13,1.18s1.22.81,1.59,1.31c.58.8,1.17,1.94.29,2.89-1.36,1.47-1.44-.32-2.06-.87-1-.87-2-.42-2.82.28-.68.56-.41,1.12,0,1.8,2,3.07,3.34,6.46.33,9.44a12,12,0,0,1-13.19,2.69,7.46,7.46,0,0,0-6.36.17c-16.79,7.21-32.26,16.92-48.33,25.49-1.38.74-2.79,1.41-4.19,2.11-1.4-1.45-.76-2.85.05-4.28,4.07-7.12,3-9.43-5-10.54a3,3,0,0,1-1-1.09,3.21,3.21,0,0,1,1.55-4.08c6.19-2.69,7.65-8.18,8.78-14A5.1,5.1,0,0,1,518.68,99.45Z"/><path class="cls-5" d="M229.23,337.86a22.54,22.54,0,0,1,.52-20.45c1-1.93,1.48-2.49-.52-4.47-3.61-3.56-1.92-8.48-.92-12.83.61-2.66,2.4-5.18,0-7.8a1.14,1.14,0,0,1-.09-1c4.2-8.55-2.67-16.73-.86-25.19,8.66-11.68,17-23.61,26.32-34.78,3.32-.2,3.29,2.32,3.46,4.46.22,2.92.29,5.84,2.22,8.29a5.07,5.07,0,0,1-.83,5c-3.49,3.71-3.41,8.21-3.36,12.81.07,7,0,14,0,21,0,2.51,0,4.72,3,5.95,2.56,1,2.35,3.71.76,5.28-4,3.92-4,8.73-3.79,13.67a30.15,30.15,0,0,1-1.32,9.3Z"/><path class="cls-6" d="M328.42,124.68c3.75,2.46,2.55,6.35,2.3,9.58-.85,11.3.69,22.57.11,33.85-11.93,18.89-24,37.67-37.07,55.84-1,1.42-2.09,2.81-3.13,4.21-2.75,1.42-3.8-.54-4.76-2.47a9.36,9.36,0,0,1-.67-4.65c.5-11.34-.33-22.72,1.24-34,14.12-20.09,28.18-40.22,40.86-61.26A6.11,6.11,0,0,1,328.42,124.68Z"/><path class="cls-7" d="M518.68,99.45c2.37,7.8-.61,14.48-7.94,17.2-1.5.56-2.38,1.18-2.81,2.61-.47,1-1.49,1.31-2.37,1.78,1-.33,1.74-1,2.71-1.35,3.19-.66,6-2.7,9.22-2.63.88,6.72,2,13.35-4.09,18.24q-23.58,14.32-47.18,28.63a11.29,11.29,0,0,1-2.42.81,3.35,3.35,0,0,1-1.66-3.59c.6-4.1.34-7.94-2.27-11.48a4.61,4.61,0,0,1,0-5A15,15,0,0,0,461.31,132c16.82-10.44,33.89-20.46,51.57-29.38C514.86,101.63,516.07,99.22,518.68,99.45Z"/><path class="cls-2" d="M378.3,221.69l-46.47,33.85c-2.72-1.12-2.46-3.46-2.45-5.78,0-4.17.64-8.46-2.4-12.08a3.21,3.21,0,0,1-.45-3.52c3.05-4.78,2.14-10.59,4.22-15.59,15.27-12,31.4-22.85,47.55-33.64,3.95,1.78,3.71,5.36,3.15,8.58a39.94,39.94,0,0,0,.05,15.06C382.44,213.21,382.35,218.05,378.3,221.69Z"/><path class="cls-8" d="M378.3,221.69c1.27-5.9,1.86-11.79-.42-17.62a7.87,7.87,0,0,1,.05-5.16c1.31-4.62,1.8-9.28.37-14,13.63-9.77,27.58-19.05,42.05-27.53,1.64-.62,2.68.32,3.52,1.48,2.94,4.1.75,12.49-3.65,14.76,3.21-.11,4.34,2,4.68,4.88.65,5.55.28,10.8-4.38,14.77Z"/><path class="cls-9" d="M330.75,218.57c1.56,5.18,1.9,10.23-1.48,15-.46.65-1,2-.75,2.28,6.14,5.59,2.19,12.83,3.24,19.23,0,.17.05.34.07.51l-40.32,30.59c-3.15-.41-3.16-2.95-3.09-5.1.17-5.64-1.48-11.46,1.45-16.85.44-.81-.14-1.21-.4-1.81a16.79,16.79,0,0,1,.18-13.12C303.13,238.74,316.63,228.24,330.75,218.57Z"/><path class="cls-10" d="M420.52,193.29A32.54,32.54,0,0,0,422.69,180c-.37-5.38-1.59-6.17-6.46-3.7-1,.52-1.81,1.73-4.47.77,9.47-4.16,14.6-9.89,8.59-19.69,13.3-9,26.85-17.67,41-25.4,3.87,2.3,4.81,6,2.19,11.17-1.52,3-3.66,4.74.7,7.87,2.21,1.59.85,7,.15,10.59-.2,1-.37,2.07-.55,3.11-11.6,8.79-24.32,15.88-36.3,24.09C425.22,190.39,422.85,191.81,420.52,193.29Z"/><path class="cls-11" d="M253.87,317.06c-2-4.54-.48-9.39-1.23-14-.9-5.63,3.23-8.44,6.3-12.1-2.45-1.1-3.3,2.79-5.14,1.34s-1-3.92-1-5.95c-.12-10.15-.06-20.31-.24-30.46-.05-2.93,1.41-5,3.08-7,1.29-1.5,2.62-2.82,2.56-5-.24-2.47.79-4.34,3.3-4.26,2.71.08,2.91,2.57,3.05,4.66a188.58,188.58,0,0,1-.14,19.75l-5.08,8,.55.43,12.88-9.58a3.18,3.18,0,0,1,1.76,2.43c.19.87-.31,1.84-.06,2.58,3.53,10.65-2.23,21.31.11,31.94C268.23,306.31,260.83,311.42,253.87,317.06Z"/><path class="cls-12" d="M286.44,187c.7,6.39,3.32,12.48,1.87,19.22a56.19,56.19,0,0,0-.58,16.74c.18,2,.48,4.27,2.9,5.17-5.86,8.78-12.13,17.24-18.68,25.51-3.14.55-4.08-1.76-4.35-3.95a69.85,69.85,0,0,1,.55-20.31c.54-3.12,3.39-4.22,6-6.08-4,1.78-6,.45-6.74-3.66-.66-3.53,1.84-6.27,2.08-9.55A240.11,240.11,0,0,1,286.44,187Z"/><path class="cls-13" d="M421.63,387.68c-7,9.1-14.53,17.87-20.71,29-.57-6.2-5-9.87-3.24-16,2.36-8.12,5.52-15.93,8.15-23.92a336.39,336.39,0,0,1,13.83-34.56c3.48.25,3.78,2.87,4.23,5.51.66,3.92-1.24,7.48-1.41,11.27-3,8.84-6,17.67-9.25,27.08,3.36-1.44,4.56-4.59,7-6.18C425.21,381.79,425.3,382.31,421.63,387.68Z"/><path class="cls-14" d="M274.53,299.88c-2.55-1.11-3-3.44-2.72-5.69.72-5.46-2.41-11.58,2.72-16.31a.91.91,0,0,0,0-.89c-5.15-4.11-2-9.28-1.84-14.06,5.19-5.12,11.2-9.22,16.93-13.68a27.58,27.58,0,0,1,1.08,9.39c-.07,2.22,0,4.39,2.68,3.83-4.78,7.67-2.54,15.74-1.9,23.66C286.52,291.54,280.29,295.42,274.53,299.88Z"/><path class="cls-13" d="M268.63,416.53c-7.17,9.38-15.1,18.19-20.83,28.75-6.84-8.64-3.28-16.9-.43-25.19,5-14.66,9.84-29.4,16.79-43.32,3.83.8,3.32,3.92,3.59,6.66.31,3.14-1.74,6.16-.42,9.33q-4,11.73-8,23.47c3-2.42,4.86-5.67,8.05-7.62,2.92-.31,3.5,1.34,3.14,3.76C270.3,413.94,269,415,268.63,416.53Z"/><path class="cls-15" d="M284.4,446.82c31.06-5.83,62.13-11.64,92.83-19.22,1-.84,2.11-.38,3.18-.45,2.7,1,3.89,2.37,1,4.64-12.15,4.42-24.95,6.32-37.38,9.7-11.27,3.07-23,4.54-34.33,7.3-6.36,1.54-12.65,3.38-19.14,4.25a45.54,45.54,0,0,1-6.07,0c-2,.93-3.08,0-3.47-1.82C280.5,448.59,282.1,447.39,284.4,446.82Z"/><path class="cls-16" d="M269.53,210.12c1.38,2.17.42,4.38.22,6.61s-.29,5.06,1.82,6.17,2.51-2.37,5.68-3.42c-8.48,11-10.1,22.24-5.3,34.19-1.94,3.9-4.76,7.16-7.58,10.43-2.61-2.49-2.11-5.74-2.13-8.85,0-4.65,0-9.3,0-14-2.5,0-2.6,2.25-4.07,2.73-3.34.86-3.13-1.51-3.32-3.6-.27-3,.81-6.23-1.17-9A212.24,212.24,0,0,1,269.53,210.12Z"/><path class="cls-17" d="M319.58,423c-2.31,3.65-5.61,7.86-9.5,7.25-3.51-.55-5.63-5.43-7.68-9-2.38-4.16-.75-8.23.21-12.12A114.62,114.62,0,0,1,312,384.71c.95-1.88,1.76-4.64,4.67-4.11,2.51.46,5.61,6.65,4.73,9-2.65,7-5.55,13.95-8,21a43.55,43.55,0,0,0-2.63,13c4.43-.79,6.39-5,10.12-6.28C322.83,419.8,318.17,420.69,319.58,423Z"/><path class="cls-18" d="M224.25,52.05c-19.5,10-38.34,21.11-55.72,34.57-16,12.38-31.17,25.61-44.56,40.81-2.68,3-5.15,6.17-4.58,10.69.3,2.38-1.81,3.2-3.44,4.14a2,2,0,0,1-1.89-.07c-1.29-1.68-.21-3.34.4-4.94,2.31-6.05,6.64-10.8,11-15.31,28-29.23,59.54-53.83,96.19-71.47.78-.38,1.63-.62,2.44-.93A1.69,1.69,0,0,1,224.25,52.05Z"/><path class="cls-19" d="M278.17,458.48q44.26-8.48,88-19.31c6.84-1.7,13.68-3.44,20.52-5.17.51,1.11-.13,1.58-1.06,1.87-2.32,3.58-6.54,3.56-9.84,4.18-7.46,1.4-14.58,3.87-21.9,5.63-10.2,2.46-20.35,5.15-30.52,7.74a15.27,15.27,0,0,1-8.25,3.95c-7.34,1-14.3,4.05-21.93,3.87-3.74-.09-7.05,3-11.05,2.58C279.83,462.79,277.07,462.08,278.17,458.48Z"/><path class="cls-20" d="M380.22,427.41c0-.24.1-.48.16-.72,27.47-6.81,54.87-13.81,81.31-24.23.15.68.27,1.22.26,1.22-4,1-5.84,5.09-9.51,6.63-8.29,3.47-16.94,5.92-25.33,9A126.35,126.35,0,0,1,411.2,424c-4.66,1.05-8.69,3.76-13.71,4.05-5.38.3-10.35,3.78-16,3.71C382.23,430,381.59,428.6,380.22,427.41Z"/><path class="cls-21" d="M216.88,465.49c-1.3-2.76-5.49-4-4.21-8.12l46.42-6.29c1.72,2.33,1.55,4.67,0,7A163,163,0,0,1,216.88,465.49Z"/><path class="cls-22" d="M212.67,478a7.09,7.09,0,0,0-5.88-2.64c-4.6.26-4.8-2-3.64-5.36,14.65-1.94,29.34-3.52,43.86-6.38a12.48,12.48,0,0,1,2.59,0c1.27,1.1,2.27,2.31,1.65,4.15-3.46,3.54-7.92,2.52-11.12,2.73a4,4,0,0,1,2.2,1.29,3.12,3.12,0,0,1,.45,1.45c-.47,2.13-2.24,2.74-4,3.41a4.31,4.31,0,0,1-1.52,0c-4.12-.46-8.55,1.7-12.38-1.39-2.51-.21-4,1.31-5.44,3.07C217.18,478.72,214.77,481.11,212.67,478Z"/><path class="cls-23" d="M377.22,446.53c-31.36,8.67-62.73,17.35-94.74,23.42-2.41.83-4.23.67-4.28-2.52.15-.68.38-1.6,1-1.73,5.83-1.17,10.78-5.82,17.26-4.38.85.19,2,.39,2.57-.1,4.79-4.07,11.07-1.7,16.29-3.9,3.31-1.39,6.78-.85,10.2-.38,11-2.1,21.83-4.56,32.55-7.69,6.31-1.85,12.71-3.38,19.07-5.05A1.52,1.52,0,0,1,377.22,446.53Z"/><path class="cls-24" d="M332.88,396.91a10.24,10.24,0,0,1,2.36-5.73c1.38-1.81,3-5.23,5.35-3.76,2.83,1.78,5.61,4.85,3.55,9.18a91.94,91.94,0,0,0-6.25,18.7c-.47,2-2.45,4.39,1.46,5.11-1.32,3.81,2.57.85,2.95,2.37-5.85,2.8-6.15,2.68-9.38-3.51C332,411.82,330.72,404.36,332.88,396.91Z"/><path class="cls-25" d="M162.55,79.5C150.74,90,138.92,100.42,128.12,112A109,109,0,0,0,117,125.89c-.64,1-.56,3.14-2.72,1.53-1.88-1.39-.44-2.35.3-3.46a164.32,164.32,0,0,1,16.83-20.83,264.74,264.74,0,0,1,29.44-27C163.67,76.11,162.51,78.11,162.55,79.5Z"/><path class="cls-26" d="M202.12,485.87c0-1.41,0-2.83,0-4.25.79-2.27,2.52-2.74,4.61-2.32a19,19,0,0,0,9.27-.84c7.21-2.19,14.73-2,22-3.33l-.14,0c1-.93,2.33-.36,3.48-.61.84-.19,1.92-.33.8-1.56l.06.11c-1.61-2.46.22-3.09,2-3.48,2-.44,4.13-.42,6.08-1.24a4.64,4.64,0,0,1,3.74,1.93c.67,1.37-.29,2.46-.61,3.67a5.59,5.59,0,0,0-.65,2.22c-11.5,3.51-23.43,5-35.18,7.32C212.49,484.53,207.28,485.1,202.12,485.87Z"/><path class="cls-27" d="M377.22,446.53c0-.78-.05-1.56-.08-2.34,19.94-6.31,40.23-11.5,59.89-18.72,6.87-2.52,13.6-5.45,20.47-8,1.53-.57,3.1-1.79,6.07-.5C435.16,429.69,406.45,438.83,377.22,446.53Z"/><path class="cls-5" d="M426.81,327.37c2.06,3.81.61,7.95,1.14,11.9.18,1.41-1.33,3.85,1.86,3.88,2.33-.18,2.24-4,5.11-3.39l.53.51c.29,2.44-2.63,3.06-3.12,5.9l4.33-3.6c-3.14,7.74-11.39,9.68-14.18,16.39-1.71-3.49-.54-7.24-.94-10.84a14,14,0,0,0-1.88-5.94C422.25,337.34,423.44,331.82,426.81,327.37Z"/><path class="cls-28" d="M385.66,435.87c.35-.62.71-1.24,1.06-1.87l35-10.35c11.87-3.5,23.71-7.08,35-12.16a10,10,0,0,1,4.53-.67,328.17,328.17,0,0,1-32.5,12.88c-12.85,4.2-25.79,8.1-38.68,12.15C388.53,436.35,387.15,436.88,385.66,435.87Z"/><path class="cls-29" d="M259.12,458.09c-.64-2.33-1.62-4.67,0-7l25.31-4.26c-2.06,2.12-3.52,4.23.14,6.22-2.25,2.1-5.26,2-8,2.48C270.8,456.59,264.94,457.26,259.12,458.09Z"/><path class="cls-30" d="M238,34.09c-14.64,6.18-28.23,14.69-43.62,19.26,13.21-8.63,26.82-16.49,41.56-22.28,1.07.25,2.48-.51,3.14,1C239.58,33.13,238.36,33.4,238,34.09Z"/><path class="cls-31" d="M381.3,388.49c-2.1-5.54-.39-11.31-1.07-16.93,1.52-1.9,3.07-4.46,5.54-4.32,4.17.24,5.59,4.48,6.88,7.38s-.45,5.25-4.72,5.83C384.27,380.94,383.43,385.67,381.3,388.49Z"/><path class="cls-32" d="M381.53,424.6c-1.31-3.12-1.14-6.43-1.23-9.71a2,2,0,0,1,0-3c.05-3.57.11-7.13.17-10.7,3.44,3.44,7.07,2.79,10.95-.1-.29,2.08-1.68,2.21-2.59,2.57-2.72,1.08-2.85,2.31-1.52,4.95C390.55,415.08,388.13,421.17,381.53,424.6Z"/><path class="cls-33" d="M224.25,52.05,224,49.54c15.67-7.49,31.71-13.94,48.81-17.43.36.65.71,1.31,1.07,2-11.49,3.85-23.19,7.07-34.52,11.46A145.74,145.74,0,0,0,224.25,52.05Z"/><path class="cls-34" d="M282.34,461.45,255,466.81a3.29,3.29,0,0,1-1.56,1.78,2.34,2.34,0,0,1-2.8-1c-.36-1.29-.71-2.58-1.07-3.87l28.57-5.21A4.51,4.51,0,0,0,282.34,461.45Z"/><path class="cls-35" d="M428.09,373.06c3.51-1.19,7.8,2.54,7.71,6.9a81.09,81.09,0,0,1-.77,8.37c-.64,5.22,1.36,8.5,5.76,9.26-5.68,2.2-8.92-.11-9.67-7.15a62.92,62.92,0,0,1,0-7.89c.07-3.3-1.44-2.42-3.11-1.24C424.64,378.52,426.38,375.79,428.09,373.06Z"/><path class="cls-36" d="M275,402.5c4.67,0,7.9,3.76,7,8.72a48.83,48.83,0,0,0-.76,8.76c0,.52,0,1,0,1.56-.19,2.45,2.24,3.37,3.06,5.22.76.6.76,1.19,0,1.79-5.71-1.45-8.6-8.59-6.84-16.85.23-1.08,2.12-3.44-1.36-1.9C272.87,407.51,272.83,407.2,275,402.5Z"/><path class="cls-37" d="M238,34.09c1-2.17-.92-2.32-2.06-3,8.26-3.61,16.43-7.43,25.26-9.54.92,1.11,3.18.83,3.11,3Z"/><path class="cls-38" d="M264.33,24.52c-.78-1.27-3.63-.37-3.11-3,7.31-2.36,14.44-5.37,22.16-6.32,1.14,1.11.23,3.25,2,4C278.69,22.22,271.18,22.06,264.33,24.52Z"/><path class="cls-39" d="M252.78,476.21c-2.31-.28-3.37-1-1-2.92,2.19-1.17,4.13-2.89,6.8-3,2.95-.83,5.92-1.57,9-.62,2.92-.54,6.52,1,8.09-3.45.55-1.54,2.36.23,3.55.72,0,2.18,1.49,2.77,3.28,3A261.17,261.17,0,0,1,252.78,476.21Z"/><path class="cls-40" d="M162.55,79.5c-3.17.23-.84-2.38-1.72-3.34a182.47,182.47,0,0,1,18-13.29c.8-.5,1.55-2.15,2.82-.18,1,1.55.7,2.19-.68,3.19C174.79,70.35,168.69,75,162.55,79.5Z"/><path class="cls-41" d="M271.86,25.78l2,.9c-1.6,3.26-4.86,1.4-7.27,2.21-14.66,5-29.48,9.48-43.31,16.6-.38.2-1,0-3.11-.15C237.7,36.77,254.39,30.27,271.86,25.78Z"/><path class="cls-42" d="M275,402.5c0,2.49,2.27,4.64,1.06,7.3l-7.42,6.73c.49-2.78,1.59-5.66-1.24-7.92C269.48,406,271.58,403.45,275,402.5Z"/><path class="cls-43" d="M428.09,373.06c0,2.75,1.66,5.53-.12,8.25-1.68,2.55-4,4.43-6.34,6.37,2.22-3.07.78-5.5-1.35-7.82A19.66,19.66,0,0,1,428.09,373.06Z"/><path class="cls-44" d="M332.88,396.91c-.5,7.45,2.65,14.9,0,22.36a4.94,4.94,0,0,1-2.15-3.25c-.45-1.44-1.48-2.72-1.21-4.36A30.09,30.09,0,0,1,332.88,396.91Z"/><path class="cls-45" d="M442.18,330.39l2.88,1.69c-1.08,5.23-5.77,6.21-9.61,8.19l-.4-.3A8.65,8.65,0,0,1,442.18,330.39Z"/><path class="cls-46" d="M319.58,423c-2.34.39-3.51,3.21-7,3.37,2.56-3.89,6.62-5.36,8.25-8.95l3.07.8c.25-.17.28-.59.67-.61,0,.28-.09.57-.13.86Z"/><path class="cls-47" d="M204.24,55.16c2.82-2.8,5.72-5.5,10-5.41Z"/><path class="cls-48" d="M199,57.84c-2.35,2.16-4.73,4.29-9,5.46A15.55,15.55,0,0,1,199,57.84Z"/><path class="cls-49" d="M356.82,412a17.24,17.24,0,0,1-6.47,6.38Z"/><path class="cls-17" d="M329.56,411.66c.41,1.45.81,2.91,1.21,4.36-3.75-3.49-3.93,2.34-6.31,2.42a.61.61,0,0,0-.54-.25A20.82,20.82,0,0,1,329.56,411.66Z"/><path class="cls-50" d="M284.25,428.55v-1.79l6.94-1.16C289,428,286.53,428,284.25,428.55Z"/><path class="cls-4" d="M508.27,119.69c-1.53,2.06-3.81,2.79-7,4.28,1.6-3.93,4.56-3.67,6.66-4.71Z"/><path class="cls-5" d="M261.18,288.54a14.11,14.11,0,0,1,8.09-6.56A13.2,13.2,0,0,1,261.18,288.54Z"/><path class="cls-51" d="M381.17,414.75a4.78,4.78,0,0,0-.87-.49v.63c-3.09,1.57-5.59,4.15-9.15,5-2.16.49-4.16,0-5.12-1.54-1.09-1.7.67-3.21,1.92-4.42,4.4-4.26,8-4.81,12.37-2v.58a3.59,3.59,0,0,0,1.91-1.83c1-3.44,0-6.52-1.73-9.45-4.24-4.53-1.13-8.6.81-12.74-.08-2.29,1.2-4.35,1.25-6.57.09-3.61,1.66-7.63-2.32-10.36-4.84,4.12-7.16,9.75-9.39,15.46a11.1,11.1,0,0,0,.89,10.44c3.5,5.84,3.11,6.47-3,9.45-3.49,1.69-7.63,3.74-7,8.17s2.81,8.84,8.12,10.6c2.45.82,5.25.08,7.37,1.92l3-.19a.85.85,0,0,0,.5-.14c.19-.13.07-.32-.34-.58-2-2,1.64-.91,1.15-2.09A8.24,8.24,0,0,0,381.17,414.75ZM365.12,413c2.5-4.73,5.83-5.48,9.61-5.51Z"/><path class="cls-52" d="M444.77,313.66q-1.15-5.32-2.29-10.65h0c-7,7-11.88,15.32-15.67,24.36-.25,4.16-1.71,8.21-1.19,12.44.31,2.49.51,5.08,4.09,4.79.35-.42.68-.86,1-1.29a2.69,2.69,0,0,1-.91-.16Z"/><path class="cls-53" d="M452.94,297.39c-4.07-2.34-7.13,2.12-10.12,4.65-.22.19-.23.64-.34,1h0c3.33-.16,3.49,2.33,3.25,4.48a12.4,12.4,0,0,0,.45,4.41c2-2.88,3.35-6.41,7.27-8.64-.49,10.93-4.94,19.41-11.27,27.13l-.23.28c.08.15.15.31.25.47a3.61,3.61,0,0,0,2.86.94A62.35,62.35,0,0,0,456,309.25C457.15,304.7,456.91,299.67,452.94,297.39Z"/><path class="cls-53" d="M444.77,313.66a14.12,14.12,0,0,0,1.41-1.76,12.4,12.4,0,0,1-.45-4.41c.24-2.15.08-4.64-3.25-4.48q1.14,5.33,2.29,10.65Z"/><path class="cls-1" d="M224.52,472.78c.89,3.3-.09,4.18-4.65,4.19-.53-.45-1.05-.91-1.59-1.34s-1-.78-1.61-1.21C219,471.37,222.35,475.18,224.52,472.78Z"/><path class="cls-54" d="M275.87,372.74h0q8-15.25,15.92-30.51h0c-2.74-2.64-1.62-6.6-3.28-9.61h0a71.13,71.13,0,0,0-13.68,21.06C275.45,360,273.83,366.48,275.87,372.74Z"/><path class="cls-53" d="M299.56,327.11c-2.59-2.31-5.11.63-7.44,1.87a8.35,8.35,0,0,0-3.61,3.64h0c2.65-.37,3.11,1.56,3.28,3.42a26.18,26.18,0,0,0,1,4.76l4.07-5.68c.64-.9,1.51-1.74,2.59-1.2s.67,1.71.46,2.74c-1.71,8.31-6.39,15.18-10.7,22.24a4.77,4.77,0,0,1,1.58,3.52h0c6.45-7.74,9.93-16.88,12.18-26.52C303.8,332.4,301.89,329.19,299.56,327.11Z"/><path class="cls-53" d="M291.79,342.23h0l1-1.43a26.18,26.18,0,0,1-1-4.76c-.17-1.86-.63-3.79-3.28-3.42,1.66,3,.54,7,3.28,9.61Z"/><path class="cls-55" d="M279.09,372.85h0l-1,1.06h0a4.83,4.83,0,0,1-1.93,3c-1,.87-1.93,2.45-3.44,1.93-1.71-.59-.84-2.4-1-3.69-.56-3.63,1.46-7.75-2-10.85h0a47.49,47.49,0,0,0-5.54,12.46c1.73,3.09,1.12,6.49,1.23,9.78.07,2.26-.29,4.64,1.94,6.21A22.86,22.86,0,0,1,274,382.6c3.37-2.83,6.91-5.82,7.2-10.82l-2.09,1.07Z"/><path class="cls-56" d="M273,365.87a31.44,31.44,0,0,1,1.85-12.19,32.92,32.92,0,0,0-5.13,10.63C271.65,364,272.56,364.66,273,365.87Z"/><path class="cls-56" d="M275.84,373.19a3.31,3.31,0,0,1-1.47-.56,24.07,24.07,0,0,1-1.07-4.1,18.59,18.59,0,0,0,.19,4.41c.55,2.27,1.55,2.45,2.77,1.28C276,374.13,275.83,373.83,275.84,373.19Z"/><path class="cls-56" d="M273,365.87a7.18,7.18,0,0,1,.32,2c0,.23,0,.46,0,.69a24.07,24.07,0,0,0,1.07,4.1,3.31,3.31,0,0,0,1.47.56,3.91,3.91,0,0,1,0-.45h0c-2-6.26-.42-12.72-1-19.06A31.44,31.44,0,0,0,273,365.87Z"/><path class="cls-56" d="M271.71,375.16c.2,1.29-.67,3.1,1,3.69,1.51.52,2.41-1.06,3.44-1.93a4.83,4.83,0,0,0,1.93-3h0c-.6.06-1.38.47-1.86.31-1.22,1.17-2.22,1-2.77-1.28a18.59,18.59,0,0,1-.19-4.41c-.15-.89-.26-1.77-.32-2.66-.42-1.21-1.33-1.92-3.28-1.56h0C273.17,367.41,271.15,371.53,271.71,375.16Z"/><path class="cls-56" d="M273,365.87c.06.89.17,1.77.32,2.66,0-.23,0-.46,0-.69A7.18,7.18,0,0,0,273,365.87Z"/><path class="cls-56" d="M288.53,359.88c-2.79,3.88-6.39,7.18-8.67,11.43a2.06,2.06,0,0,1,1.32.47l5.17-6.14c-.49,2-1,2.79-.74,3.22.53,1,1.18.06,1.46-.32,1.41-1.93,3.22-3.64,3.74-6.12h0C289.48,362.06,289,360.94,288.53,359.88Z"/><path class="cls-56" d="M288.53,359.88c.51,1.06,1,2.18,2.28,2.54a4.77,4.77,0,0,0-1.58-3.52C289,359.23,288.77,359.55,288.53,359.88Z"/><path class="cls-56" d="M279.09,372.85h0l2.09-1.07a2.06,2.06,0,0,0-1.32-.47C279.59,371.81,279.32,372.32,279.09,372.85Z"/><path class="cls-57" d="M250.59,469.14c1.24-.21,2.61-.13,3.23-1.6l1.21-.73c3.73,3.06,7.48-.29,11.21,0,1.54.12,3.77-1.53,4.42.72s-3-.09-3.1,2.13c-2.46,2.19-5.62,1.8-8.54,2.28-1.4-1.9-3.73.9-5.14-1A4.45,4.45,0,0,1,250.59,469.14Z"/></svg>